{
  "accessors": [
    {
      "bufferView": 2,
      "componentType": 5126,
      "count": 6248,
      "max": [
        2.3922200202941895,
        2.3922219276428223,
        7.278811931610107
      ],
      "min": [
        -2.3922200202941895,
        -2.392220973968506,
        6.610304832458496
      ],
      "type": "VEC3"
    },
    {
      "bufferView": 2,
      "byteOffset": 74976,
      "componentType": 5126,
      "count": 6248,
      "max": [
        0.9995394945144653,
        0.9995393753051758,
        1.0
      ],
      "min": [
        -0.9995394945144653,
        -0.9995393753051758,
        -0.875752866268158
      ],
      "type": "VEC3"
    },
    {
      "bufferView": 1,
      "componentType": 5126,
      "count": 6248,
      "max": [
        0.9832779765129089,
        0.9980189800262451
      ],
      "min": [
        0.0019290000200271606,
        0.09943799674510956
      ],
      "type": "VEC2"
    },
    {
      "bufferView": 0,
      "componentType": 5125,
      "count": 36384,
      "type": "SCALAR"
    },
    {
      "bufferView": 2,
      "byteOffset": 149952,
      "componentType": 5126,
      "count": 7575,
      "max": [
        2.73665189743042,
        2.7366530895233154,
        7.495540142059326
      ],
      "min": [
        -2.73665189743042,
        -2.73665189743042,
        -7.217299938201904
      ],
      "type": "VEC3"
    },
    {
      "bufferView": 2,
      "byteOffset": 240852,
      "componentType": 5126,
      "count": 7575,
      "max": [
        0.999885618686676,
        0.9754213690757751,
        0.9999021291732788
      ],
      "min": [
        -0.9998631477355957,
        -0.9753639101982117,
        -1.0
      ],
      "type": "VEC3"
    },
    {
      "bufferView": 1,
      "byteOffset": 49984,
      "componentType": 5126,
      "count": 7575,
      "max": [
        0.9890339970588684,
        0.9824479818344116
      ],
      "min": [
        0.05349399894475937,
        0.0
      ],
      "type": "VEC2"
    },
    {
      "bufferView": 0,
      "byteOffset": 145536,
      "componentType": 5125,
      "count": 43200,
      "type": "SCALAR"
    },
    {
      "bufferView": 2,
      "byteOffset": 331752,
      "componentType": 5126,
      "count": 6156,
      "max": [
        2.8556458950042725,
        2.855647087097168,
        7.13047981262207
      ],
      "min": [
        -2.855644941329956,
        -2.8556458950042725,
        -6.571800231933594
      ],
      "type": "VEC3"
    },
    {
      "bufferView": 2,
      "byteOffset": 405624,
      "componentType": 5126,
      "count": 6156,
      "max": [
        1.0,
        1.0,
        0.5259878635406494
      ],
      "min": [
        -1.0,
        -1.0,
        -0.4356950521469116
      ],
      "type": "VEC3"
    },
    {
      "bufferView": 1,
      "byteOffset": 110584,
      "componentType": 5126,
      "count": 6156,
      "max": [
        0.879531979560852,
        0.7480810284614563
      ],
      "min": [
        6.900000153109431e-05,
        0.03786800056695938
      ],
      "type": "VEC2"
    },
    {
      "bufferView": 0,
      "byteOffset": 318336,
      "componentType": 5125,
      "count": 36000,
      "type": "SCALAR"
    }
  ],
  "asset": {
    "extras": {
      "author": "cola8 (https://sketchfab.com/cola8)",
      "license": "CC-BY-4.0 (http://creativecommons.org/licenses/by/4.0/)",
      "source": "https://sketchfab.com/3d-models/cola-pop-can-6a81fc2f4f494543a9d3de40a63874ba",
      "title": "Cola Pop Can"
    },
    "generator": "Sketchfab-16.61.0",
    "version": "2.0"
  },
  "bufferViews": [
    {
      "buffer": 0,
      "byteLength": 462336,
      "name": "floatBufferViews",
      "target": 34963
    },
    {
      "buffer": 0,
      "byteLength": 159832,
      "byteOffset": 462336,
      "byteStride": 8,
      "name": "floatBufferViews",
      "target": 34962
    },
    {
      "buffer": 0,
      "byteLength": 479496,
      "byteOffset": 622168,
      "byteStride": 12,
      "name": "floatBufferViews",
      "target": 34962
    }
  ],
  "buffers": [
    {
      "byteLength": 1101664,
      "uri": "scene.bin"
    }
  ],
  "extensionsUsed": [
    "KHR_materials_specular"
  ],
  "images": [
    {
      "uri": "textures/aiStandardSurface1SG_baseColor.png"
    },
    {
      "uri": "textures/aiStandardSurface1SG_metallicRoughness.png"
    }
  ],
  "materials": [
    {
      "doubleSided": true,
      "extensions": {
        "KHR_materials_specular": {
          "specularColorFactor": [
            1.0,
            1.0,
            1.0
          ],
          "specularFactor": 1.0
        }
      },
      "name": "aiStandardSurface1SG",
      "pbrMetallicRoughness": {
        "baseColorTexture": {
          "index": 0
        },
        "metallicRoughnessTexture": {
          "index": 1
        }
      }
    }
  ],
  "meshes": [
    {
      "name": "Object_0",
      "primitives": [
        {
          "attributes": {
            "NORMAL": 1,
            "POSITION": 0,
            "TEXCOORD_0": 2
          },
          "indices": 3,
          "material": 0,
          "mode": 4
        }
      ]
    },
    {
      "name": "Object_1",
      "primitives": [
        {
          "attributes": {
            "NORMAL": 5,
            "POSITION": 4,
            "TEXCOORD_0": 6
          },
          "indices": 7,
          "material": 0,
          "mode": 4
        }
      ]
    },
    {
      "name": "Object_2",
      "primitives": [
        {
          "attributes": {
            "NORMAL": 9,
            "POSITION": 8,
            "TEXCOORD_0": 10
          },
          "indices": 11,
          "material": 0,
          "mode": 4
        }
      ]
    }
  ],
  "nodes": [
    {
      "children": [
        1
      ],
      "matrix": [
        1.0,
        0.0,
        0.0,
        0.0,
        0.0,
        2.220446049250313e-16,
        -1.0,
        0.0,
        0.0,
        1.0,
        2.220446049250313e-16,
        0.0,
        0.0,
        0.0,
        0.0,
        1.0
      ],
      "name": "Sketchfab_model"
    },
    {
      "children": [
        2,
        3,
        4
      ],
      "name": "pop_can.obj.cleaner.materialmerger.gles"
    },
    {
      "mesh": 0,
      "name": "Object_2"
    },
    {
      "mesh": 1,
      "name": "Object_3"
    },
    {
      "mesh": 2,
      "name": "Object_4"
    }
  ],
  "samplers": [
    {
      "magFilter": 9729,
      "minFilter": 9987,
      "wrapS": 10497,
      "wrapT": 10497
    }
  ],
  "scene": 0,
  "scenes": [
    {
      "name": "Sketchfab_Scene",
      "nodes": [
        0
      ]
    }
  ],
  "textures": [
    {
      "sampler": 0,
      "source": 0
    },
    {
      "sampler": 0,
      "source": 1
    }
  ]
}
